<?xml version="1.0" encoding="UTF-8"?>
<svg xmlns="http://www.w3.org/2000/svg" width="869.5" height="972.2" xmlns:xlink="http://www.w3.org/1999/xlink" viewBox="0 0 869.5 972.2">
  <defs>
    <style>
      .cls-1 {
        fill: #f2eab1;
      }

      .cls-2 {
        fill: #c62b02;
      }

      .cls-3 {
        fill: #e838d3;
      }

      .cls-4 {
        fill: #fff;
      }

      .cls-5 {
        fill: #723324;
      }

      .cls-6 {
        fill: #e54829;
      }

      .cls-7 {
        fill: #ffe600;
      }

      .cls-8 {
        fill: #6bce57;
      }

      .cls-9 {
        fill: none;
        stroke: #01750c;
        stroke-miterlimit: 10;
        stroke-width: 4px;
      }

      .cls-10 {
        fill: #0448aa;
      }

      .cls-11 {
        fill: #79abe8;
      }

      .cls-12 {
        fill: #bfb504;
      }

      .cls-13 {
        fill: #037f14;
      }
    </style>
  </defs>
  <g id="background">
    <g>
      <path class="cls-9" d="M19.26,216.89C157.76,145.35,296.25,73.81,434.75,2.27c128.1,71.02,256.2,142.04,384.31,213.06-266.6.52-533.2,1.04-799.8,1.56Z"/>
      <rect class="cls-12" y="185.25" width="869.5" height="786.96" rx="53.66" ry="53.66"/>
      <rect class="cls-5" x="27.52" y="205.75" width="821.35" height="744.44" rx="63.29" ry="63.29"/>
    </g>
  </g>
  <g id="Dnelk-layer">
    <g id="Layer_6">
      <g>
        <rect class="cls-10" x="171.28" y="572.87" width="243.82" height="340.06" transform="translate(72.21 -24.58) rotate(5.47)"/>
        <rect class="cls-4" x="208.19" y="605.85" width="174.04" height="231.79" transform="translate(70.2 -24.87) rotate(5.47)"/>
      </g>
      <image width="879" height="851" transform="translate(186.04 640.78) scale(.24)" xlink:href="The-girls-1.png"/>
    </g>
    <g id="Dnelk-normal">
      <rect class="cls-4" x="207.45" y="606.02" width="178.18" height="247.18" transform="translate(70.95 -24.96) rotate(5.47)"/>
      <image width="891" height="865" transform="translate(184.6 656.38) scale(.24)" xlink:href="The-girls-2.png"/>
    </g>
  </g>
  <g id="Anne-layer">
    <g id="Anne-happy">
      <g>
        <rect class="cls-13" x="154.62" y="264.12" width="250.82" height="349.82" transform="translate(-79.26 62.1) rotate(-11.1)"/>
        <rect class="cls-4" x="174.45" y="298.68" width="199.38" height="238.44" transform="translate(-75.31 60.57) rotate(-11.1)"/>
      </g>
      <image width="1394" height="1469" transform="translate(160.85 336.4) rotate(-11.1) scale(.14 .15)" xlink:href="The-girls-3.png"/>
    </g>
    <g id="anne-normal">
      <rect class="cls-4" x="174.58" y="300.07" width="199.38" height="237.04" transform="translate(-75.44 60.61) rotate(-11.1)"/>
      <image width="937" height="934" transform="translate(135.44 346.53) rotate(-11.1) scale(.24)" xlink:href="The-girls-4.png"/>
    </g>
  </g>
  <g id="Sarah-layer">
    <g id="sarah-happy">
      <g>
        <rect class="cls-2" x="431" y="249.39" width="255.36" height="356.16" transform="translate(-53.62 81.14) rotate(-7.93)"/>
        <rect class="cls-4" x="464.47" y="284.05" width="182.28" height="242.76" transform="translate(-50.61 80.51) rotate(-7.93)"/>
      </g>
      <image width="674" height="817" transform="translate(429.68 270.72) rotate(-3.22) scale(.34)" xlink:href="The-girls-5.png"/>
    </g>
    <g id="sarah-normal">
      <image width="636" height="761" transform="translate(442.79 299.85) rotate(-7.93) scale(.31)" xlink:href="The-girls-6.png"/>
    </g>
  </g>
  <g id="Christiana-layer">
    <g id="Christiana-happy">
      <g>
        <rect class="cls-12" x="488.37" y="571.27" width="240.93" height="336.04" transform="translate(42.12 -32.76) rotate(3.19)"/>
        <rect class="cls-4" x="508.91" y="603.83" width="203.48" height="229.04" transform="translate(40.96 -32.9) rotate(3.19)"/>
      </g>
      <image width="1465" height="1571" transform="translate(518.25 610.96) rotate(3.19) scale(.13)" xlink:href="The-girls-7.png"/>
    </g>
    <g id="Christiana-Normal">
      <image width="737" height="927" transform="translate(515.41 598.91) rotate(3.19) scale(.28 .25)" xlink:href="The-girls-8.png"/>
      <image width="770" height="936" transform="translate(517 613.9) scale(.24)" xlink:href="The-girls-9.png"/>
    </g>
  </g>
  <g id="Stickers">
    <g>
      <g>
        <g>
          <ellipse class="cls-3" cx="160.8" cy="309.92" rx="10.83" ry="29.71" transform="translate(-183.97 365.05) rotate(-71.66)"/>
          <ellipse class="cls-3" cx="155.75" cy="317.67" rx="10.83" ry="29.71" transform="translate(-172.86 186.57) rotate(-42.13)"/>
          <ellipse class="cls-3" cx="147.53" cy="321.92" rx="10.83" ry="29.71" transform="translate(-66.68 39.94) rotate(-12.6)"/>
          <ellipse class="cls-3" cx="138.28" cy="321.57" rx="29.71" ry="10.83" transform="translate(-209.62 360.22) rotate(-73.07)"/>
          <ellipse class="cls-3" cx="130.41" cy="316.71" rx="29.71" ry="10.83" transform="translate(-182.29 176.95) rotate(-43.54)"/>
          <ellipse class="cls-3" cx="125.96" cy="308.6" rx="29.71" ry="10.83" transform="translate(-70.95 39.66) rotate(-14.01)"/>
          <ellipse class="cls-3" cx="126.08" cy="299.35" rx="10.83" ry="29.71" transform="translate(-196.09 340.71) rotate(-74.48)"/>
          <ellipse class="cls-3" cx="130.75" cy="291.36" rx="10.83" ry="29.71" transform="translate(-167.62 177.5) rotate(-44.94)"/>
          <ellipse class="cls-3" cx="138.75" cy="286.7" rx="10.83" ry="29.71" transform="translate(-71.21 47.19) rotate(-15.41)"/>
          <ellipse class="cls-3" cx="148" cy="286.6" rx="29.71" ry="10.83" transform="translate(-166.04 360.22) rotate(-75.88)"/>
          <ellipse class="cls-3" cx="156.1" cy="291.07" rx="29.71" ry="10.83" transform="translate(-162.26 203.11) rotate(-46.35)"/>
          <ellipse class="cls-3" cx="160.95" cy="298.95" rx="29.71" ry="10.83" transform="translate(-79.62 59.36) rotate(-16.82)"/>
        </g>
        <circle class="cls-2" cx="141.48" cy="303.73" r="11.51"/>
      </g>
      <g>
        <g>
          <ellipse class="cls-3" cx="478.51" cy="592.48" rx="10.83" ry="29.71" transform="translate(-234.43 860.3) rotate(-71.66)"/>
          <ellipse class="cls-3" cx="473.45" cy="600.24" rx="10.83" ry="29.71" transform="translate(-280.32 472.71) rotate(-42.13)"/>
          <ellipse class="cls-3" cx="465.24" cy="604.49" rx="10.83" ry="29.71" transform="translate(-120.67 116.06) rotate(-12.6)"/>
          <ellipse class="cls-3" cx="455.99" cy="604.14" rx="29.71" ry="10.83" transform="translate(-254.75 864.44) rotate(-73.07)"/>
          <ellipse class="cls-3" cx="448.12" cy="599.28" rx="29.71" ry="10.83" transform="translate(-289.54 473.53) rotate(-43.54)"/>
          <ellipse class="cls-3" cx="443.66" cy="591.17" rx="29.71" ry="10.83" transform="translate(-129.9 124.96) rotate(-14.01)"/>
          <ellipse class="cls-3" cx="443.79" cy="581.91" rx="10.83" ry="29.71" transform="translate(-235.68 853.76) rotate(-74.48)"/>
          <ellipse class="cls-3" cx="448.45" cy="573.92" rx="10.83" ry="29.71" transform="translate(-274.39 484.5) rotate(-44.94)"/>
          <ellipse class="cls-3" cx="456.45" cy="569.27" rx="10.83" ry="29.71" transform="translate(-134.88 141.79) rotate(-15.41)"/>
          <ellipse class="cls-3" cx="465.7" cy="569.17" rx="29.71" ry="10.83" transform="translate(-199.87 881.98) rotate(-75.88)"/>
          <ellipse class="cls-3" cx="473.81" cy="573.64" rx="29.71" ry="10.83" transform="translate(-268.31 520.53) rotate(-46.35)"/>
          <ellipse class="cls-3" cx="478.65" cy="581.52" rx="29.71" ry="10.83" transform="translate(-147.79 163.38) rotate(-16.82)"/>
        </g>
        <circle class="cls-2" cx="459.18" cy="586.3" r="11.51"/>
      </g>
      <path class="cls-7" d="M210.33,682.13l-14.32-25.4c-5.06-8.98-15.11-13.96-25.32-12.53l-28.88,4.02c-2.28.32-3.31-2.75-1.31-3.87l25.4-14.32c8.98-5.06,13.96-15.11,12.53-25.32l-4.02-28.88c-.32-2.28,2.75-3.31,3.87-1.31l14.32,25.4c5.06,8.98,15.11,13.96,25.32,12.53l28.88-4.02c2.28-.32,3.31,2.75,1.31,3.87l-25.4,14.32c-8.98,5.06-13.96,15.11-12.53,25.32l4.02,28.88c.32,2.28-2.75,3.31-3.87,1.31Z"/>
      <path class="cls-7" d="M673.34,333.88l-2.37-21.74c-1.76-16.15-20-24.7-33.54-15.72l-18.22,12.09,15.08-11.04c14.27-10.46,12.4-32.32-3.44-40.19l-16.74-8.32,20.01,8.82c14.87,6.55,31.39-4.97,30.38-21.19l-1.36-21.83,2.03,18.58c1.92,17.59,21.79,26.9,36.53,17.12l15.58-10.33-17.64,12.92c-13.11,9.6-11.39,29.67,3.16,36.9l19.58,9.74-17.1-7.54c-16.19-7.13-34.19,5.42-33.09,23.08l1.16,18.66Z"/>
      <circle class="cls-11" cx="398.01" cy="268.17" r="20.64"/>
      <circle class="cls-1" cx="110.95" cy="763.54" r="20.64"/>
      <circle class="cls-8" cx="757.97" cy="685.11" r="20.64"/>
      <circle class="cls-6" cx="91.95" cy="491.59" r="20.64"/>
    </g>
  </g>
</svg>