<?xml version="1.0" encoding="UTF-8"?>
<svg xmlns="http://www.w3.org/2000/svg" width="869.5" height="972.2" xmlns:xlink="http://www.w3.org/1999/xlink" viewBox="0 0 869.5 972.2">
  <g id="background">
    <g>
      <path d="M19.26,216.89C157.76,145.35,296.25,73.81,434.75,2.27c128.1,71.02,256.2,142.04,384.31,213.06-266.6.52-533.2,1.04-799.8,1.56Z" fill="none" stroke="#01750c" stroke-miterlimit="10" stroke-width="4"/>
      <rect y="185.25" width="869.5" height="786.96" rx="63.22" ry="63.22" fill="#8e5407"/>
      <rect x="27.52" y="205.75" width="821.35" height="744.44" rx="121.82" ry="121.82" fill="#704037"/>
    </g>
  </g>
  <g id="Dnelk-layer">
    <g id="Layer_6">
      <g>
        <rect x="171.28" y="572.87" width="243.82" height="340.06" transform="translate(72.21 -24.58) rotate(5.47)" fill="#0448aa"/>
        <rect x="193.25" y="606.06" width="204.31" height="231.79" transform="translate(70.22 -24.89) rotate(5.47)" fill="#fff"/>
      </g>
      <image width="960" height="975" transform="translate(163.45 636.46) rotate(-1.12) scale(.22)" xlink:href="Thegirls-rendered-1.png"/>
    </g>
    <g id="Dnelk-normal">
      <rect x="193.27" y="607.87" width="204.31" height="231.79" transform="translate(70.39 -24.88) rotate(5.47)" fill="#fff"/>
      <image width="1042" height="1106" transform="translate(172.12 630.84) rotate(-3.45) scale(.21 .23)" xlink:href="Thegirls-rendered-2.png"/>
    </g>
  </g>
  <g id="Anne-layer">
    <g id="Anne-happy">
      <g>
        <rect x="154.62" y="264.12" width="250.82" height="349.82" transform="translate(-79.26 62.1) rotate(-11.1)" fill="#037f14"/>
        <rect x="174.45" y="298.68" width="199.38" height="238.44" transform="translate(-75.31 60.57) rotate(-11.1)" fill="#fff"/>
      </g>
    </g>
    <g id="Layer_12">
      <image width="870" height="904" transform="translate(151.09 309.45) scale(.3)" xlink:href="Thegirls-rendered-3.png"/>
    </g>
    <g id="anne-normal">
      <rect x="174.58" y="302.07" width="199.38" height="237.04" transform="translate(-75.82 60.65) rotate(-11.1)" fill="#fff"/>
      <image width="849" height="921" transform="translate(162.65 313.62) scale(.3)" xlink:href="Thegirls-rendered-4.png"/>
    </g>
  </g>
  <g id="Sarah-layer">
    <g id="sarah-happy">
      <g>
        <rect x="431" y="249.39" width="255.36" height="356.16" transform="translate(24.68 -30.45) rotate(3.19)" fill="#c62b02"/>
        <rect x="458.14" y="294.37" width="207.04" height="242.76" transform="translate(24.03 -30.64) rotate(3.19)" fill="#fff"/>
      </g>
      <image width="849" height="940" transform="translate(407.59 318.45) rotate(-8.04) scale(.3 .31)" xlink:href="Thegirls-rendered-5.png"/>
    </g>
    <g id="sarah-normal">
      <rect x="458.29" y="297.67" width="206.85" height="241.47" transform="translate(24.18 -30.64) rotate(3.19)" fill="#fff"/>
      <image width="740" height="860" transform="translate(414.8 314.88) rotate(-7.93) scale(.31)" xlink:href="Thegirls-rendered-6.png"/>
    </g>
  </g>
  <g id="Christiana-layer">
    <g id="Christiana-happy">
      <g>
        <rect x="488.37" y="571.27" width="240.93" height="336.04" transform="translate(42.12 -32.76) rotate(3.19)" fill="#bfb504"/>
        <rect x="508.91" y="603.83" width="203.48" height="229.04" transform="translate(40.96 -32.9) rotate(3.19)" fill="#fff"/>
      </g>
      <g id="Layer_11">
        <image width="997" height="1067" transform="translate(527.68 583.22) rotate(10.1) scale(.25)" xlink:href="Thegirls-rendered-7.png"/>
      </g>
    </g>
    <g id="Christiana-Normal">
      <image width="737" height="927" transform="translate(515.41 600.91) rotate(3.19) scale(.28 .25)" xlink:href="Thegirls-rendered-8.png"/>
      <image width="585" height="642" transform="translate(523.36 587.38) rotate(10.34) scale(.41)" xlink:href="Thegirls-rendered-9.png"/>
    </g>
  </g>
  <g id="Stickers">
    <g>
      <g>
        <g>
          <ellipse cx="166.53" cy="297.85" rx="15.29" ry="41.94" transform="translate(-168.59 362.22) rotate(-71.66)" fill="#d1aa02"/>
          <ellipse cx="159.39" cy="308.8" rx="15.29" ry="41.94" transform="translate(-165.97 186.72) rotate(-42.13)" fill="#d1aa02"/>
          <ellipse cx="147.79" cy="314.8" rx="15.29" ry="41.94" transform="translate(-65.12 39.82) rotate(-12.6)" fill="#d1aa02"/>
          <ellipse cx="134.74" cy="314.31" rx="41.94" ry="15.29" transform="translate(-205.19 351.68) rotate(-73.07)" fill="#d1aa02"/>
          <ellipse cx="123.62" cy="307.45" rx="41.94" ry="15.29" transform="translate(-177.77 169.73) rotate(-43.54)" fill="#d1aa02"/>
          <ellipse cx="117.33" cy="295.99" rx="41.94" ry="15.29" transform="translate(-68.15 37.2) rotate(-14.01)" fill="#d1aa02"/>
          <ellipse cx="117.51" cy="282.93" rx="15.29" ry="41.94" transform="translate(-186.55 320.43) rotate(-74.48)" fill="#d1aa02"/>
          <ellipse cx="124.1" cy="271.65" rx="15.29" ry="41.94" transform="translate(-155.64 167.04) rotate(-44.94)" fill="#d1aa02"/>
          <ellipse cx="135.39" cy="265.08" rx="15.29" ry="41.94" transform="translate(-65.58 45.52) rotate(-15.41)" fill="#d1aa02"/>
          <ellipse cx="148.45" cy="264.94" rx="41.94" ry="15.29" transform="translate(-144.69 344.28) rotate(-75.88)" fill="#d1aa02"/>
          <ellipse cx="159.89" cy="271.25" rx="41.94" ry="15.29" transform="translate(-146.74 199.72) rotate(-46.35)" fill="#d1aa02"/>
          <ellipse cx="166.73" cy="282.38" rx="41.94" ry="15.29" transform="translate(-74.58 60.33) rotate(-16.82)" fill="#d1aa02"/>
        </g>
        <circle cx="141.94" cy="290.42" r="8.36" fill="#c62b02"/>
      </g>
      <g>
        <g>
          <ellipse cx="469.38" cy="597.81" rx="10.83" ry="29.71" transform="translate(-245.74 855.28) rotate(-71.66)" fill="#e838d3"/>
          <ellipse cx="464.32" cy="605.56" rx="10.83" ry="29.71" transform="translate(-286.25 467.96) rotate(-42.13)" fill="#e838d3"/>
          <ellipse cx="456.11" cy="609.81" rx="10.83" ry="29.71" transform="translate(-122.05 114.19) rotate(-12.6)" fill="#e838d3"/>
          <ellipse cx="446.86" cy="609.46" rx="29.71" ry="10.83" transform="translate(-266.32 859.47) rotate(-73.07)" fill="#e838d3"/>
          <ellipse cx="438.99" cy="604.6" rx="29.71" ry="10.83" transform="translate(-295.71 468.71) rotate(-43.54)" fill="#e838d3"/>
          <ellipse cx="434.53" cy="596.49" rx="29.71" ry="10.83" transform="translate(-131.46 122.91) rotate(-14.01)" fill="#e838d3"/>
          <ellipse cx="434.65" cy="587.24" rx="10.83" ry="29.71" transform="translate(-247.49 848.86) rotate(-74.48)" fill="#e838d3"/>
          <ellipse cx="439.32" cy="579.25" rx="10.83" ry="29.71" transform="translate(-280.82 479.61) rotate(-44.94)" fill="#e838d3"/>
          <ellipse cx="447.32" cy="574.59" rx="10.83" ry="29.71" transform="translate(-136.63 139.56) rotate(-15.41)" fill="#e838d3"/>
          <ellipse cx="456.57" cy="574.49" rx="29.71" ry="10.83" transform="translate(-211.93 877.14) rotate(-75.88)" fill="#e838d3"/>
          <ellipse cx="464.68" cy="578.96" rx="29.71" ry="10.83" transform="translate(-274.99 515.57) rotate(-46.35)" fill="#e838d3"/>
          <ellipse cx="469.52" cy="586.84" rx="29.71" ry="10.83" transform="translate(-149.72 160.97) rotate(-16.82)" fill="#e838d3"/>
        </g>
        <circle cx="450.05" cy="591.62" r="11.51" fill="#c62b02"/>
      </g>
      <path d="M212.2,657.83l-14.32-25.4c-5.06-8.98-15.11-13.96-25.32-12.53l-28.88,4.02c-2.28.32-3.31-2.75-1.31-3.87l25.4-14.32c8.98-5.06,13.96-15.11,12.53-25.32l-4.02-28.88c-.32-2.28,2.75-3.31,3.87-1.31l14.32,25.4c5.06,8.98,15.11,13.96,25.32,12.53l28.88-4.02c2.28-.32,3.31,2.75,1.31,3.87l-25.4,14.32c-8.98,5.06-13.96,15.11-12.53,25.32l4.02,28.88c.32,2.28-2.75,3.31-3.87,1.31Z" fill="#ffe600"/>
      <path d="M636.66,314.82h0c-2.26-20.34-16.45-35.61-32.44-34.91h0c-2.21.1-2.57-4.09-.37-4.37h0c15.87-2.03,27.26-19.49,26.03-39.91h0c-.17-2.82,3.1-3.1,3.41-.29h0c2.26,20.34,16.45,35.61,32.44,34.91h0c2.21-.1,2.57,4.09.37,4.37h0c-15.87,2.03-27.26,19.49-26.03,39.91h0c.17,2.82-3.1,3.1-3.41.29Z" fill="#ffe600"/>
      <circle cx="399.88" cy="243.88" r="20.64" fill="#79abe8"/>
      <circle cx="150.3" cy="747.5" r="20.64" fill="#f2eab1"/>
      <circle cx="730.61" cy="446.65" r="20.64" fill="#6bce57"/>
      <circle cx="91.54" cy="516.82" r="20.64" fill="#e54829"/>
      <circle cx="771.88" cy="819.67" r="20.64" fill="#e54829"/>
    </g>
  </g>
</svg>